<svg width="71" height="59" viewBox="0 0 71 59" fill="none" xmlns="http://www.w3.org/2000/svg">
<path d="M63.6357 10.6597H45.1635V4.003C45.1635 1.54566 42.9811 0 40.2965 0H30.1137C27.4852 0 25.2467 1.54566 25.2467 4.003V10.9402H7.05785C3.4055 10.9402 0 14.0428 0 18.1411C0 18.2505 0 51.1217 0 51.1217C0 55.6886 3.41391 58.6284 7.01297 58.6284H63.6637C67.246 58.6284 70.6907 55.9382 70.6907 51.3153C70.6907 51.3153 70.6907 18.085 70.6907 17.9448C70.6627 13.7987 67.274 10.6597 63.6357 10.6597ZM28.8934 3.92726H41.5168V10.9402H28.8934V3.92726ZM37.5783 47.8453V51.0853H32.9217V47.6742C30.4756 47.1804 28.2202 46.1061 26.0967 44.3893L29.6172 40.894C29.6172 40.894 32.1923 42.9109 34.5936 43.2111C37.3623 43.5533 39.037 42.3948 39.2305 40.8295C39.5952 37.9317 33.1994 36.7956 30.9048 35.7016C28.1557 34.3691 25.4094 32.5879 25.4094 28.7896C25.4094 24.9073 28.4137 22.074 32.9217 21.7318V18.2337H37.5783V21.8608C40.5153 22.4191 42.5351 23.8132 44.1004 24.8848L40.9024 28.6185C39.8954 27.8247 38.0916 26.7951 36.3328 26.408C34.0999 25.9368 31.6986 26.4726 31.5247 28.6634C31.4602 29.5639 31.8697 31.3227 36.7395 32.6748C39.3147 33.4042 45.2813 34.9919 45.2813 40.5714C45.2813 44.3276 42.0189 47.3516 37.5783 47.8453Z" fill="#84E84F"/>
</svg>
