<svg width="72" height="45" viewBox="0 0 72 45" fill="none" xmlns="http://www.w3.org/2000/svg">
<path d="M35.1858 23.3217C33.4117 23.4695 31.7855 22.7303 30.0114 22.139C20.6975 19.0343 11.2358 15.9297 1.92191 12.8251C1.33055 12.5294 0.887036 12.3816 0.443518 11.938C-0.147839 11.4945 -0.147839 10.9032 0.443518 10.4596C0.887036 10.164 1.47839 9.72044 2.06975 9.5726C12.1228 6.61581 22.0281 3.65903 32.0812 0.554398C34.2987 -0.184799 36.6642 -0.184799 39.0296 0.554398C48.9348 3.51118 58.8401 6.46797 68.7453 9.42476C69.3367 9.72044 69.928 9.86828 70.5194 10.3118C71.2586 10.7553 71.2586 11.4945 70.5194 11.938C70.0759 12.2337 69.6324 12.5294 69.041 12.6772C59.1358 15.9297 49.2305 19.33 39.1774 22.5825C37.8469 23.1738 36.6642 23.3217 35.1858 23.3217Z" fill="#84E84F"/>
<path d="M15.5231 23.7654C14.0447 23.4697 13.749 24.3567 13.749 25.0959C13.749 28.9398 13.749 32.6358 13.749 36.3317C13.749 37.6623 14.1925 38.4015 15.0796 39.2885C15.3753 39.5842 15.8188 39.8799 16.1145 40.1756C18.4799 41.8018 21.2888 42.8367 24.0978 43.5759C29.7157 45.0543 35.3336 45.3499 41.0993 44.6107C44.7953 44.1672 48.4913 43.1324 51.8916 41.654C53.37 40.9148 54.8484 40.1756 55.8833 38.9928C56.6225 38.2537 56.9181 37.5145 56.7703 36.4796C56.9181 32.9314 56.9181 29.2354 56.9181 25.5395C56.9181 23.4697 55.4397 23.7654 54.8484 23.9132C49.674 25.6873 44.2039 27.3135 39.0296 29.0876C36.3684 29.9746 33.8552 29.9746 31.3419 29.0876L15.5231 23.7654Z" fill="#84E84F"/>
<path d="M64.9014 20.365C64.4579 20.5129 64.31 20.6607 64.31 21.252C64.31 24.6524 64.31 27.9048 64.31 31.3051C64.31 31.6008 64.1622 32.0443 64.0144 32.34C63.2752 34.1141 62.536 35.8882 61.9446 37.6622C61.3532 39.2885 61.6489 41.0625 62.8316 42.2452C63.1273 42.6888 63.7187 43.1323 64.1622 43.428C64.6057 43.8715 65.3449 44.0193 65.9363 44.1672C66.9711 44.315 67.8582 43.7236 68.5974 43.1323C68.8931 42.8366 69.3366 42.5409 69.6323 42.0974C70.5193 40.9147 70.6671 39.4363 70.3715 38.1057C69.9279 36.036 69.0409 34.2619 68.1539 32.4878C67.8582 32.1922 67.8582 31.6008 67.8582 31.3051C67.8582 27.6091 67.8582 24.061 67.8582 20.365C67.8582 19.6258 67.2668 19.7737 66.9711 19.9215L64.9014 20.365Z" fill="#84E84F"/>
</svg>
