<svg width="36" height="27" viewBox="0 0 36 27" fill="none" xmlns="http://www.w3.org/2000/svg">
<path d="M36 9.53803C36 11.1992 34.548 12.6195 32.85 12.6195H25.8292C26.9781 13.8182 27.1192 16.1187 25.3863 17.6078C26.391 19.213 25.5373 21.3356 24.2297 21.9893C24.8607 25.4445 22.6866 27 19.125 27C18.9319 27 18.1915 26.9857 18 26.9863C13.6427 26.9981 12.5934 24.802 9.30016 24.2923C8.47941 24.1652 7.875 23.4562 7.875 22.6256V10.5652L7.87514 10.5652C7.87591 9.2738 8.62094 8.04171 9.87652 7.48231C11.9076 6.56866 16.5852 4.03432 17.4375 2.04553C17.9857 0.766266 18.9411 0.000562962 20.25 2.94165e-07C22.6562 -0.000983898 24.3107 2.46783 23.3521 4.70447C23.1002 5.29221 22.7677 5.87658 22.357 6.45652H32.85C34.4988 6.45652 36 7.90094 36 9.53803V9.53803ZM6.75 9.5625V23.0625C6.75 23.9945 5.99449 24.75 5.0625 24.75H1.6875C0.755508 24.75 0 23.9945 0 23.0625V9.5625C0 8.63051 0.755508 7.875 1.6875 7.875H5.0625C5.99449 7.875 6.75 8.63051 6.75 9.5625ZM4.78125 21.375C4.78125 20.5983 4.15167 19.9688 3.375 19.9688C2.59833 19.9688 1.96875 20.5983 1.96875 21.375C1.96875 22.1517 2.59833 22.7812 3.375 22.7812C4.15167 22.7812 4.78125 22.1517 4.78125 21.375Z" fill="#6EBD44"/>
</svg>
