<svg width="52" height="48" viewBox="0 0 52 48" fill="none" xmlns="http://www.w3.org/2000/svg">
<path d="M17.9549 41.1571C18.879 41.9685 19.833 42.8056 20.8142 43.6735C20.8209 43.6794 20.8277 43.6854 20.8346 43.6913L24.099 46.5111C24.5363 46.889 25.0792 47.0778 25.622 47.0778C26.1648 47.0778 26.7078 46.8888 27.1451 46.5111L30.4089 43.6913C30.4157 43.6854 30.4224 43.6795 30.4291 43.6736C36.8912 37.9587 41.7363 33.5835 45.2415 29.3164C49.3356 24.3327 51.2426 19.8266 51.2426 15.1355C51.2426 6.64821 44.5943 2.56125e-09 36.1074 2.56125e-09C32.2929 2.56125e-09 28.5239 1.43634 25.622 3.92618C22.7193 1.43619 18.9503 2.56125e-09 15.1357 2.56125e-09C6.64837 -0.000150678 0 6.64822 0 15.1353C0 25.3946 7.14289 31.6652 17.9549 41.1571ZM16.3024 18.8796H22.5148V12.6669H28.7275V18.8796H34.94V25.0922H28.7275V31.3046H22.5148V25.0922H16.3024V18.8796H16.3024Z" fill="#84E84F"/>
</svg>
