<svg width="38" height="38" viewBox="0 0 38 38" fill="none" xmlns="http://www.w3.org/2000/svg">
<path d="M18.6143 9.06533C13.3333 9.06533 9.07364 13.325 9.07364 18.606C9.07364 23.8871 13.3333 28.1468 18.6143 28.1468C23.8954 28.1468 28.1551 23.8871 28.1551 18.606C28.1551 13.325 23.8954 9.06533 18.6143 9.06533ZM18.6143 24.8087C15.2016 24.8087 12.4116 22.0271 12.4116 18.606C12.4116 15.185 15.1933 12.4033 18.6143 12.4033C22.0354 12.4033 24.8171 15.185 24.8171 18.606C24.8171 22.0271 22.0271 24.8087 18.6143 24.8087H18.6143ZM30.7707 8.67507C30.7707 9.91229 29.7742 10.9004 28.5453 10.9004C27.3081 10.9004 26.32 9.90399 26.32 8.67507C26.32 7.44615 27.3164 6.44973 28.5453 6.44973C29.7742 6.44973 30.7707 7.44615 30.7707 8.67507ZM37.0896 10.9336C36.9484 7.95267 36.2676 5.31216 34.0837 3.13664C31.9082 0.961129 29.2677 0.280243 26.2868 0.13078C23.2145 -0.0435933 14.0059 -0.0435933 10.9336 0.13078C7.96097 0.27194 5.32046 0.952826 3.13664 3.12834C0.952826 5.30385 0.280243 7.94436 0.13078 10.9253C-0.0435933 13.9976 -0.0435933 23.2062 0.13078 26.2785C0.271939 29.2594 0.952825 31.8999 3.13664 34.0754C5.32046 36.2509 7.95266 36.9318 10.9336 37.0813C14.0059 37.2557 23.2145 37.2557 26.2868 37.0813C29.2677 36.9401 31.9082 36.2593 34.0837 34.0754C36.2593 31.8999 36.9401 29.2594 37.0896 26.2785C37.264 23.2062 37.264 14.0059 37.0896 10.9336L37.0896 10.9336ZM33.1205 29.5749C32.4729 31.2024 31.219 32.4563 29.5833 33.1122C27.1337 34.0837 21.3213 33.8596 18.6143 33.8596C15.9074 33.8596 10.0867 34.0754 7.64544 33.1122C6.01795 32.4646 4.76413 31.2107 4.10815 29.5749C3.13664 27.1254 3.36084 21.313 3.36084 18.606C3.36084 15.8991 3.14495 10.0784 4.10815 7.63714C4.75582 6.00965 6.00965 4.75582 7.64544 4.09985C10.095 3.12834 15.9074 3.35253 18.6143 3.35253C21.3213 3.35253 27.142 3.13664 29.5833 4.09985C31.2107 4.74752 32.4646 6.00135 33.1205 7.63714C34.092 10.0867 33.8679 15.8991 33.8679 18.606C33.8679 21.313 34.092 27.1337 33.1205 29.5749Z" fill="#EA2C31"/>
</svg>
