<svg width="24" height="24" viewBox="0 0 24 24" fill="none" xmlns="http://www.w3.org/2000/svg">
<path d="M11.6019 5.65022C8.31036 5.65022 5.65539 8.30519 5.65539 11.5967C5.65539 14.8883 8.31036 17.5432 11.6019 17.5432C14.8934 17.5432 17.5484 14.8883 17.5484 11.5967C17.5484 8.30519 14.8934 5.65022 11.6019 5.65022ZM11.6019 15.4627C9.47482 15.4627 7.7359 13.729 7.7359 11.5967C7.7359 9.46447 9.46965 7.73072 11.6019 7.73072C13.7342 7.73072 15.4679 9.46447 15.4679 11.5967C15.4679 13.729 13.729 15.4627 11.6019 15.4627H11.6019ZM19.1787 5.40698C19.1787 6.17811 18.5576 6.79398 17.7917 6.79398C17.0205 6.79398 16.4047 6.17293 16.4047 5.40698C16.4047 4.64102 17.0257 4.01997 17.7917 4.01997C18.5576 4.01997 19.1787 4.64102 19.1787 5.40698ZM23.1171 6.81468C23.0291 4.95672 22.6048 3.31095 21.2436 1.955C19.8877 0.59905 18.2419 0.174669 16.384 0.0815122C14.4691 -0.0271707 8.72957 -0.0271707 6.81468 0.0815122C4.96189 0.169494 3.31612 0.593875 1.955 1.94982C0.593875 3.30577 0.174669 4.95154 0.0815122 6.8095C-0.0271707 8.72439 -0.0271707 14.4639 0.0815122 16.3788C0.169494 18.2367 0.593875 19.8825 1.955 21.2385C3.31612 22.5944 4.95672 23.0188 6.81468 23.1119C8.72957 23.2206 14.4691 23.2206 16.384 23.1119C18.2419 23.024 19.8877 22.5996 21.2436 21.2385C22.5996 19.8825 23.024 18.2367 23.1171 16.3788C23.2258 14.4639 23.2258 8.72957 23.1171 6.81468L23.1171 6.81468ZM20.6433 18.4334C20.2396 19.4478 19.4581 20.2293 18.4386 20.6381C16.9118 21.2436 13.2891 21.1039 11.6019 21.1039C9.91473 21.1039 6.28679 21.2385 4.76523 20.6381C3.75085 20.2344 2.96937 19.4529 2.56052 18.4334C1.955 16.9067 2.09473 13.2839 2.09473 11.5967C2.09473 9.90956 1.96017 6.28161 2.56052 4.76005C2.9642 3.74568 3.74568 2.9642 4.76523 2.55534C6.29197 1.94982 9.91473 2.08956 11.6019 2.08956C13.2891 2.08956 16.917 1.955 18.4386 2.55534C19.4529 2.95902 20.2344 3.7405 20.6433 4.76005C21.2488 6.28679 21.1091 9.90955 21.1091 11.5967C21.1091 13.2839 21.2488 16.9118 20.6433 18.4334Z" fill="white"/>
</svg>
