<svg width="32" height="20" viewBox="0 0 32 20" fill="none" xmlns="http://www.w3.org/2000/svg">
<path d="M0.5215 8.83946L12.816 0.225838C13.0268 0.0781631 13.2225 0 13.4498 0C13.9431 0 14.4065 0.37471 14.4065 1.09087V6.2108H30.1534C30.8937 6.2108 31.5609 6.83239 31.5609 7.57272V12.0105C31.5609 12.7508 30.8935 13.3709 30.1534 13.3709H14.4065V18.4935C14.4065 19.2097 13.9428 19.636 13.4495 19.636C13.4494 19.636 13.4673 19.636 13.4673 19.636C13.24 19.636 13.0171 19.5322 12.8065 19.3844L0.517319 10.7585C0.187195 10.5273 0.000152679 10.1735 9.11695e-08 9.79906C-0.000152497 9.4248 0.191239 9.07082 0.5215 8.83946Z" fill="white"/>
</svg>
