<svg width="24" height="24" viewBox="0 0 24 24" fill="none" xmlns="http://www.w3.org/2000/svg">
<path d="M21.5421 0H1.65191C0.740511 0 0 0.750868 0 1.67262V21.5266C0 22.4484 0.740511 23.1992 1.65191 23.1992H21.5421C22.4535 23.1992 23.1992 22.4484 23.1992 21.5266V1.67262C23.1992 0.750868 22.4535 0 21.5421 0ZM7.01155 19.885H3.57309V8.81363H7.01673V19.885H7.01155ZM5.29232 7.30154C4.18932 7.30154 3.29864 6.40568 3.29864 5.30786C3.29864 4.21004 4.18932 3.31417 5.29232 3.31417C6.39014 3.31417 7.28601 4.21004 7.28601 5.30786C7.28601 6.41086 6.39532 7.30154 5.29232 7.30154H5.29232ZM19.9006 19.885H16.4621V14.4995C16.4621 13.2153 16.4362 11.5634 14.6756 11.5634C12.8839 11.5634 12.6094 12.9615 12.6094 14.4063V19.885H9.17094V8.81363H12.4696V10.3257H12.5162C12.9771 9.45575 14.1008 8.53918 15.7734 8.53918C19.2533 8.53918 19.9006 10.8332 19.9006 13.816V19.885Z" fill="white"/>
</svg>
