<svg width="38" height="38" viewBox="0 0 38 38" fill="none" xmlns="http://www.w3.org/2000/svg">
<path d="M34.5627 0H2.65036C1.18809 0 0 1.20471 0 2.68359V34.5377C0 36.0166 1.18809 37.2213 2.65036 37.2213H34.5627C36.0249 37.2213 37.2213 36.0166 37.2213 34.5377V2.68359C37.2213 1.20471 36.0249 0 34.5627 0ZM11.2495 31.904H5.73275V14.1408H11.2578V31.904H11.2495ZM8.49112 11.7147C6.72144 11.7147 5.29241 10.2774 5.29241 8.51604C5.29241 6.75467 6.72144 5.31733 8.49112 5.31733C10.2525 5.31733 11.6898 6.75468 11.6898 8.51604C11.6898 10.2857 10.2608 11.7147 8.49112 11.7147H8.49112ZM31.9289 31.904H26.4122V23.2633C26.4122 21.2029 26.3706 18.5525 23.5458 18.5525C20.6711 18.5525 20.2308 20.7958 20.2308 23.1138V31.904H14.7141V14.1408H20.0065V16.5668H20.0812C20.8207 15.171 22.6236 13.7004 25.3072 13.7004C30.8904 13.7004 31.9289 17.381 31.9289 22.1666V31.904Z" fill="#4FB6E8"/>
</svg>
