<svg width="32" height="20" viewBox="0 0 32 20" fill="none" xmlns="http://www.w3.org/2000/svg">
<path d="M31.0394 8.83946L18.7449 0.225838C18.5341 0.0781631 18.3384 0 18.1111 0C17.6178 0 17.1544 0.37471 17.1544 1.09087V6.2108H1.40756C0.667236 6.2108 0 6.83239 0 7.57272V12.0105C0 12.7508 0.667389 13.3709 1.40756 13.3709H17.1544V18.4935C17.1544 19.2097 17.6181 19.636 18.1114 19.636C18.1115 19.636 18.0936 19.636 18.0936 19.636C18.321 19.636 18.5438 19.5322 18.7545 19.3844L31.0436 10.7585C31.3737 10.5273 31.5608 10.1735 31.5609 9.79906C31.5611 9.4248 31.3697 9.07082 31.0394 8.83946Z" fill="white"/>
</svg>
