<svg width="52" height="48" viewBox="0 0 52 48" fill="none" xmlns="http://www.w3.org/2000/svg">
<path d="M4.16293 37.5296H21.1203V42.1773H17.811C17.263 42.1773 16.8098 42.6199 16.8098 43.1785V46.0767C16.8098 46.6248 17.2524 47.0779 17.811 47.0779H33.746C34.2941 47.0779 34.7473 46.6353 34.7473 46.0767V43.1785C34.7473 42.6305 34.3046 42.1773 33.746 42.1773H30.4368V37.5296H47.3941C49.6916 37.5296 51.557 35.6642 51.557 33.3666V4.16293C51.557 1.86541 49.6916 0 47.3941 0H4.16293C1.86541 0 0 1.86541 0 4.16293V33.3666C0 35.6642 1.86541 37.5296 4.16293 37.5296ZM5.68055 5.68055H45.8765V31.8174H5.68055V5.68055ZM25.7785 8.78957C20.2877 8.78957 15.8191 13.2581 15.8191 18.749C15.8191 24.2398 20.2877 28.7084 25.7785 28.7084C31.2694 28.7084 35.7379 24.2398 35.7379 18.749C35.7379 13.2581 31.2694 8.78957 25.7785 8.78957ZM22.8381 11.9302C22.2269 12.7733 21.6472 13.8378 21.2467 15.1446H19.2865C20.0874 13.7218 21.331 12.5836 22.8381 11.9302ZM18.6647 20.8462C18.4644 20.1823 18.359 19.4762 18.359 18.7384C18.359 18.0112 18.4644 17.3051 18.6647 16.6306H20.8989C20.7935 17.284 20.7303 17.9796 20.7303 18.7384C20.7303 19.4972 20.7935 20.1928 20.8989 20.8462H18.6647ZM19.2865 22.3428H21.2467C21.6472 23.6496 22.2374 24.7141 22.8381 25.5572C21.331 24.9038 20.0874 23.7656 19.2865 22.3428ZM25.0302 25.8418C24.3136 25.1146 23.4072 23.9658 22.8276 22.3428H25.0302V25.8418ZM25.0302 20.8462H22.4166C22.2901 20.2034 22.2163 19.4972 22.2163 18.7384C22.2163 17.9796 22.2901 17.284 22.4166 16.6306H25.0408V20.8462H25.0302ZM25.0302 15.1446H22.817C23.4072 13.5111 24.3136 12.3518 25.0302 11.6351V15.1446ZM32.2706 15.1446H30.3103C29.9098 13.8378 29.3196 12.7733 28.7189 11.9302C30.226 12.5836 31.4696 13.7218 32.2706 15.1446ZM26.5268 11.6457C27.2434 12.3728 28.1498 13.5216 28.7295 15.1446H26.5268V11.6457H26.5268ZM26.5268 16.6412H29.1405C29.2669 17.284 29.3407 17.9902 29.3407 18.749C29.3407 19.5078 29.2669 20.2034 29.1405 20.8568H26.5163V16.6412H26.5268ZM26.5268 22.3428H28.74C28.1498 23.9763 27.2434 25.1356 26.5268 25.8523V22.3428H26.5268ZM28.7189 25.5572C29.3302 24.7141 29.9098 23.6496 30.3103 22.3428H32.2706C31.4696 23.7656 30.226 24.9038 28.7189 25.5572ZM33.198 18.7384C33.198 19.4656 33.0926 20.1717 32.8924 20.8462H30.6581C30.7635 20.1928 30.8267 19.4972 30.8267 18.7384C30.8267 17.9796 30.7635 17.284 30.6581 16.6306H32.8924C33.0926 17.3051 33.198 18.0112 33.198 18.7384Z" fill="#84E84F"/>
</svg>
