<svg width="61" height="59" viewBox="0 0 61 59" fill="none" xmlns="http://www.w3.org/2000/svg">
<path d="M51.338 48.9888H45.689L47.2883 56.023C47.6255 57.5063 49.1016 58.4353 50.5847 58.098C52.0679 57.7607 52.9969 56.2849 52.6598 54.8017L51.338 48.9888Z" fill="#84E84F"/>
<path d="M44.5949 33.191C44.5949 31.6887 44.592 31.7673 44.6032 31.5997L40.8595 29.9307C38.9939 29.099 38.1572 27.1946 38.2291 26.0639L38.8245 16.6987L40.4281 26.2038C40.5561 26.9617 41.0548 27.6053 41.7568 27.9183L50.1321 31.6521C51.1511 32.1065 52.3317 31.7594 52.9519 30.8629C53.7799 29.6657 53.3017 28.0394 52.0013 27.4595L44.7499 24.2266L43.2978 15.619L46.4031 22.5295L46.9795 15.8246C47.1413 13.9415 45.746 12.2837 43.863 12.1219L37.7827 11.5992C35.911 11.4383 34.2625 12.8161 34.0837 14.6819L28.534 19.4651C28.3538 19.6205 28.1989 19.803 28.0749 20.0059L22.7943 28.6468C22.3492 29.3752 22.3609 30.2533 22.746 30.9506L21.5509 32.7695L15.531 28.8139C14.5222 28.151 13.1654 28.4331 12.5046 29.4437L0.356274 48.0213C-0.302638 49.0289 -0.021592 50.3798 0.984681 51.0409L4.95407 53.6491C4.86892 54.1249 4.87396 54.6171 4.97489 55.1046C5.39692 57.1445 7.41239 58.5223 9.5138 58.0871C11.5921 57.6571 12.9265 55.6271 12.4963 53.5481C12.3959 53.063 12.2044 52.6147 11.9428 52.2187C20.951 38.4428 18.7538 41.7927 25.1232 32.1009C25.7567 31.9957 26.3431 31.6273 26.7043 31.0363L31.7976 22.7017L33.521 21.2163C33.521 21.2163 32.7383 32.2938 32.7439 32.3296L34.3881 42.8031L29.9988 54.4405C29.4621 55.8638 30.1807 57.4527 31.6039 57.9895C33.0275 58.5262 34.6161 57.8074 35.1529 56.3844L39.7988 44.0663C39.9527 43.6585 40.0226 43.1755 39.9427 42.6671L38.3791 32.708L39.8318 32.8329L40.6516 34.6468C41.3002 33.7646 42.3445 33.1908 43.5208 33.1908C43.9347 33.191 44.1914 33.191 44.5949 33.191ZM8.98301 55.5231C8.30778 55.6631 7.67221 55.2186 7.53878 54.5741C7.40204 53.9127 7.82633 53.2668 8.48776 53.1299C9.16551 52.9898 9.79909 53.4365 9.93198 54.0788C10.0689 54.7403 9.6447 55.3861 8.98301 55.5231Z" fill="#84E84F"/>
<circle cx="42.2882" cy="5.06598" r="5.06598" fill="#84E84F"/>
<path d="M59.404 35.1549H56.3662V31.822C56.3662 31.2357 55.9807 30.7395 55.4493 30.5728C55.3845 30.8495 55.2935 31.1223 55.1752 31.3876C54.8542 32.1077 54.3566 32.7137 53.7477 33.1657V35.1549C53.5457 35.1549 49.8759 35.1549 49.1769 35.1549V33.6388L46.5585 32.4715C46.5585 33.4031 46.5585 34.235 46.5585 35.1549H43.5208C42.6392 35.1549 41.9248 35.8695 41.9248 36.7509V45.4292C41.9248 46.3106 42.6393 47.0251 43.5208 47.0251H59.404C60.2855 47.0251 61 46.3105 61 45.4292V36.751C61 35.8535 60.2646 35.1549 59.404 35.1549Z" fill="#84E84F"/>
</svg>
