<svg width="41" height="33" viewBox="0 0 41 33" fill="none" xmlns="http://www.w3.org/2000/svg">
<path d="M36.2742 8.18347C36.2998 8.5426 36.2998 8.90181 36.2998 9.26094C36.2998 20.215 27.9625 32.8366 12.7242 32.8366C8.02956 32.8366 3.66848 31.4769 0 29.1169C0.667018 29.1938 1.30829 29.2194 2.00097 29.2194C5.8746 29.2194 9.44051 27.9111 12.2881 25.6793C8.64525 25.6023 5.59246 23.2165 4.54065 19.9328C5.05376 20.0097 5.5668 20.0611 6.10558 20.0611C6.84951 20.0611 7.59352 19.9584 8.28612 19.7789C4.4894 19.0093 1.64176 15.6743 1.64176 11.6467V11.5441C2.74483 12.1598 4.02761 12.5446 5.38715 12.5959C3.15529 11.1079 1.69309 8.56826 1.69309 5.69504C1.69309 4.15585 2.10347 2.7449 2.82182 1.51352C6.90076 6.54162 13.032 9.82523 19.9071 10.1844C19.7788 9.56875 19.7019 8.92747 19.7019 8.28612C19.7019 3.71973 23.396 0 27.988 0C30.3737 0 32.5286 1.00049 34.0422 2.61666C35.9149 2.25753 37.7106 1.56485 39.3012 0.615691C38.6854 2.53975 37.3772 4.15593 35.6584 5.182C37.3259 5.00252 38.9421 4.54065 40.4299 3.89937C39.3014 5.54114 37.8903 7.00333 36.2742 8.18346V8.18347Z" fill="#4FD3E8"/>
</svg>
