<svg width="26" height="21" viewBox="0 0 26 21" fill="none" xmlns="http://www.w3.org/2000/svg">
<path d="M22.6089 5.10057C22.6249 5.32441 22.6249 5.5483 22.6249 5.77214C22.6249 12.5995 17.4284 20.4663 7.9307 20.4663C5.00464 20.4663 2.28648 19.6188 0 18.1479C0.415737 18.1958 0.81543 18.2118 1.24716 18.2118C3.66151 18.2118 5.88406 17.3964 7.65887 16.0053C5.38839 15.9573 3.48566 14.4703 2.83008 12.4237C3.1499 12.4716 3.46966 12.5036 3.80547 12.5036C4.26914 12.5036 4.73287 12.4396 5.16455 12.3278C2.79814 11.848 1.02327 9.76945 1.02327 7.25913V7.1952C1.71079 7.57895 2.51032 7.81878 3.35769 7.85072C1.96662 6.92332 1.05526 5.3404 1.05526 3.54959C1.05526 2.59025 1.31105 1.71084 1.75877 0.943345C4.30109 4.07725 8.12255 6.12384 12.4076 6.34773C12.3277 5.96398 12.2797 5.56429 12.2797 5.16455C12.2797 2.31842 14.5822 0 17.4443 0C18.9313 0 20.2744 0.623581 21.2178 1.63091C22.3849 1.40707 23.5042 0.975336 24.4956 0.383746C24.1118 1.58297 23.2963 2.5903 22.2251 3.22983C23.2644 3.11796 24.2717 2.83008 25.1991 2.43039C24.4957 3.45366 23.6162 4.36502 22.6089 5.10057V5.10057Z" fill="white"/>
</svg>
