<svg width="38" height="27" viewBox="0 0 38 27" fill="none" xmlns="http://www.w3.org/2000/svg">
<path d="M36.4448 4.09505C36.0167 2.48315 34.7554 1.21366 33.1539 0.782846C30.2512 0 18.6113 0 18.6113 0C18.6113 0 6.97153 0 4.06868 0.782846C2.4672 1.21373 1.20589 2.48315 0.777803 4.09505C0 7.01672 0 13.1125 0 13.1125C0 13.1125 0 19.2083 0.777803 22.13C1.20589 23.7419 2.4672 24.9585 4.06868 25.3893C6.97153 26.1721 18.6113 26.1721 18.6113 26.1721C18.6113 26.1721 30.2511 26.1721 33.1539 25.3893C34.7554 24.9585 36.0167 23.7419 36.4448 22.13C37.2226 19.2083 37.2226 13.1125 37.2226 13.1125C37.2226 13.1125 37.2226 7.01672 36.4448 4.09505V4.09505ZM14.8044 18.647V7.57799L24.533 13.1126L14.8044 18.647H14.8044Z" fill="#FF0000"/>
</svg>
