<svg width="24" height="17" viewBox="0 0 24 17" fill="none" xmlns="http://www.w3.org/2000/svg">
<path d="M22.7152 2.55235C22.4484 1.54769 21.6623 0.756449 20.6641 0.48793C18.8549 0 11.6 0 11.6 0C11.6 0 4.3452 0 2.53591 0.48793C1.53775 0.756492 0.751607 1.54769 0.484787 2.55235C0 4.37336 0 8.17273 0 8.17273C0 8.17273 0 11.9721 0.484787 13.7931C0.751607 14.7978 1.53775 15.556 2.53591 15.8246C4.3452 16.3125 11.6 16.3125 11.6 16.3125C11.6 16.3125 18.8548 16.3125 20.6641 15.8246C21.6623 15.556 22.4484 14.7978 22.7152 13.7931C23.2 11.9721 23.2 8.17273 23.2 8.17273C23.2 8.17273 23.2 4.37336 22.7152 2.55235V2.55235ZM9.22727 11.6223V4.72319L15.2909 8.17282L9.22727 11.6223H9.22727Z" fill="white"/>
</svg>
